<?xml version="1.0" encoding="UTF-8" standalone="no"?>
<!DOCTYPE svg PUBLIC "-//W3C//DTD SVG 1.1//EN" "http://www.w3.org/Graphics/SVG/1.1/DTD/svg11.dtd">
<svg width="100%" height="100%" viewBox="0 0 2500 517" version="1.1" xmlns="http://www.w3.org/2000/svg" xmlns:xlink="http://www.w3.org/1999/xlink" xml:space="preserve" xmlns:serif="http://www.serif.com/" style="fill-rule:evenodd;clip-rule:evenodd;stroke-linejoin:round;stroke-miterlimit:2;">
    <path d="M1218.43,129.381C1215.43,132.989 1216.03,134.492 1221.44,138.4C1225.35,140.805 1232.26,146.216 1236.77,150.726C1250,163.051 1255.71,161.248 1253.91,145.014C1252.71,130.885 1226.55,119.461 1218.43,129.381ZM726.611,131.185C724.507,134.492 755.772,161.548 762.085,161.548C765.392,161.548 766.895,158.843 766.895,153.131C766.895,140.805 753.066,128.48 739.238,128.48C733.225,128.48 727.513,129.682 726.611,131.185ZM634.319,143.21L627.104,148.922L634.019,156.137C639.129,161.849 640.633,166.96 640.633,180.488C640.633,189.807 639.43,197.924 637.927,198.826C636.424,200.028 627.706,200.93 618.687,201.532C606.361,201.832 600.649,200.63 596.441,196.722C590.729,191.911 571.489,189.506 567.581,193.415C566.679,194.617 568.482,198.826 571.489,203.035C576.9,209.648 577.501,215.36 577.501,252.037C577.501,291.418 577.802,293.823 584.115,298.032C593.134,304.345 597.342,304.045 604.557,296.83C609.668,291.719 610.57,286.909 610.57,260.755C610.57,232.797 610.871,230.392 617.484,226.183C621.392,223.778 635.221,220.471 647.848,218.667C660.774,217.164 676.708,214.158 683.321,212.354C693.242,209.648 696.549,209.949 700.156,213.857C704.064,217.765 703.764,221.373 698.052,246.325C686.027,297.13 657.167,345.531 624.098,370.784C616.883,376.495 609.367,381.005 607.864,381.005C606.061,381.005 604.557,383.109 604.557,385.514C604.557,391.226 610.57,391.226 621.693,385.815C626.203,383.71 639.43,377.097 650.854,371.685C690.837,352.145 720.899,313.364 735.329,262.258C738.336,252.337 742.544,240.613 744.649,236.103C747.054,231.895 748.858,224.98 748.858,221.072C748.858,212.955 733.526,195.218 719.096,186.801C709.776,181.39 709.175,181.39 705.568,186.5C703.163,189.506 696.849,191.911 689.935,192.513L678.211,193.114L677.91,175.076C677.609,165.156 677.309,155.235 677.008,153.131C676.708,148.922 654.461,137.799 646.344,137.498C643.639,137.498 638.228,140.204 634.319,143.21ZM1502.83,140.805C1496.21,144.713 1495.91,151.327 1502.23,154.935C1508.24,158.241 1513.05,192.813 1508.24,199.427C1503.43,205.74 1467.05,210.55 1437.59,208.747L1412.64,207.243L1414.44,219.87C1415.64,226.483 1418.95,234.6 1421.96,237.607C1427.37,243.018 1428.27,243.018 1450.52,234.901C1463.14,230.392 1474.27,227.686 1475.47,228.888C1478.78,232.195 1469.46,254.742 1456.23,274.884C1449.01,285.707 1443.3,295.327 1443.3,295.928C1443.3,298.333 1431.28,312.763 1417.45,327.494C1395.2,350.642 1409.33,348.237 1447.81,321.782C1464.95,310.057 1489.9,285.406 1501.32,268.571C1504.33,264.362 1507.94,260.755 1509.44,260.755C1511.24,260.755 1512.45,277.59 1512.45,301.339C1512.45,343.427 1512.14,344.028 1499.82,342.224C1498.62,342.224 1492.3,341.322 1485.69,340.12C1470.36,337.715 1470.06,341.322 1484.19,354.55C1489.9,359.961 1497.11,370.182 1500.42,377.097C1508.84,396.337 1522.97,397.539 1538,381.005C1543.71,374.692 1544.01,369.882 1544.01,299.836C1544.01,258.65 1544.91,224.078 1546.12,222.876C1547.62,221.673 1557.54,221.974 1568.66,223.778C1591.81,227.085 1595.72,226.483 1598.12,218.367C1602.63,204.538 1582.49,191.01 1566.86,197.623C1552.13,203.636 1544.31,200.63 1543.11,189.206C1542.51,183.494 1543.41,175.076 1545.21,170.266C1549.42,158.241 1545.21,151.928 1528.38,143.811C1513.65,136.897 1510.34,136.296 1502.83,140.805ZM1809.46,139.302C1808.56,140.204 1808.26,148.621 1809.16,158.241C1810.07,168.162 1809.46,176.58 1807.96,177.481C1806.16,178.684 1797.74,176.88 1788.72,173.573C1780,170.266 1772.49,167.561 1772.19,167.561C1771.89,167.561 1770.98,212.655 1770.38,267.368C1769.18,332.304 1767.38,370.483 1765.27,376.195C1763.47,381.005 1762.27,385.514 1762.87,386.115C1765.87,388.821 1774.29,382.508 1779.7,373.489C1784.21,365.673 1788.12,363.268 1798.34,361.464C1810.07,359.36 1811.87,359.961 1818.18,367.777C1822.09,372.587 1825.1,378.6 1825.1,381.305C1825.1,396.036 1847.94,395.435 1858.47,380.404C1862.07,375.594 1865.68,365.372 1866.58,358.157C1868.39,341.322 1872.29,338.617 1875.6,351.544C1878.61,363.569 1885.52,365.673 1893.64,356.654L1899.95,350.341L1907.47,357.857C1911.68,362.065 1915.88,369.28 1916.79,374.09C1920.09,388.821 1922.8,391.527 1933.62,390.625C1940.24,390.024 1946.25,387.017 1950.76,381.907C1957.37,374.09 1957.37,373.79 1957.37,265.264C1957.37,184.396 1958.27,155.836 1960.98,153.131C1966.99,147.118 1956.77,139.603 1941.74,139.302C1929.41,139.001 1928.81,139.302 1928.21,148.02C1928.21,152.83 1927.61,158.843 1927.61,160.947C1927.31,163.653 1923.1,164.555 1913.18,163.953C1899.05,163.051 1898.75,163.051 1897.85,172.671C1897.25,179.886 1895.44,182.592 1891.23,182.592C1884.92,182.592 1881.01,173.273 1883.72,164.555C1884.92,160.346 1883.12,156.438 1877.4,151.026C1867.48,142.008 1864.18,141.707 1857.26,149.523C1850.05,158.241 1841.93,157.64 1844.34,148.321C1845.54,143.21 1844.64,140.505 1841.33,139.302C1835.32,136.897 1811.57,136.897 1809.46,139.302ZM1864.18,169.665C1864.18,173.874 1853.96,182.592 1849.15,182.592C1841.93,182.592 1839.83,179.586 1843.43,173.273C1846.14,167.861 1864.18,164.855 1864.18,169.665ZM1930.01,252.638C1929.71,294.425 1928.81,331.702 1927.61,335.911C1925.81,342.525 1924,343.427 1912.28,343.427C1900.25,343.427 1898.75,342.525 1897.85,336.512C1896.95,330.5 1897.85,329.598 1902.96,331.402C1906.27,332.304 1911.68,331.702 1915.28,329.899C1921,326.892 1921.3,324.187 1921.3,252.037C1921.3,211.152 1922.2,176.58 1923.1,175.678C1929.11,169.966 1930.32,184.095 1930.01,252.638ZM1813.07,200.63C1813.07,203.636 1811.57,207.243 1810.07,208.145C1806.16,210.55 1802.85,202.133 1805.26,195.82C1807.66,189.807 1813.07,193.114 1813.07,200.63ZM1856.66,194.316C1859.07,198.525 1853.66,200.93 1847.64,198.826C1843.74,197.323 1843.43,196.421 1846.74,194.316C1851.85,191.01 1854.56,191.01 1856.66,194.316ZM1897.25,215.661C1897.25,230.392 1890.33,232.195 1885.52,218.367C1881.61,207.544 1883.42,203.636 1891.53,203.636C1896.34,203.636 1897.25,205.74 1897.25,215.661ZM1869.89,218.968C1860.57,226.183 1843.13,226.784 1843.13,219.87C1843.13,215.962 1845.24,215.36 1854.86,217.164C1863.88,218.667 1866.88,218.066 1868.39,214.158C1869.29,211.452 1871.69,210.25 1873.5,211.452C1875.9,212.955 1874.7,215.36 1869.89,218.968ZM1813.67,231.293C1814.27,239.11 1816.68,242.116 1824.19,245.723C1829.61,248.128 1834.12,251.135 1834.12,252.337C1834.12,255.644 1821.19,258.35 1812.77,257.147C1806.16,256.245 1805.56,254.442 1804.65,238.809C1804.05,225.281 1804.65,221.673 1808.26,221.673C1810.97,221.673 1813.07,225.281 1813.67,231.293ZM1897.25,245.723C1897.25,252.638 1896.04,254.742 1891.23,254.742C1887.03,254.742 1885.22,252.638 1885.22,247.828C1885.22,239.711 1887.33,236.705 1893.34,236.705C1895.74,236.705 1897.25,240.312 1897.25,245.723ZM1819.08,271.878C1819.08,277.289 1810.67,287.811 1806.46,287.811C1801.65,287.811 1804.05,270.074 1809.16,267.068C1815.48,263.761 1819.08,265.264 1819.08,271.878ZM1893.64,270.375C1897.85,274.583 1898.15,281.498 1894.54,287.51C1892.44,290.817 1890.03,289.615 1882.52,282.099C1870.79,270.074 1865.38,270.375 1861.17,283.302C1856.96,296.529 1853.36,298.633 1849.15,290.817C1845.24,283.602 1848.24,276.988 1858.47,271.277C1867.79,266.166 1888.83,265.565 1893.64,270.375ZM1816.98,305.848C1802.85,319.377 1798.04,320.88 1798.04,311.861C1798.04,302.542 1808.86,293.823 1819.99,293.823L1829.61,294.124L1816.98,305.848ZM1896.64,308.855C1896.95,314.567 1896.04,321.481 1894.54,323.886C1892.14,327.494 1890.93,327.494 1885.82,322.984C1882.82,320.278 1878.31,317.873 1875.9,317.873C1864.48,317.573 1864.18,312.763 1875.3,304.947C1890.03,294.425 1895.44,295.327 1896.64,308.855ZM1823.89,327.494C1819.08,334.408 1796.24,350.942 1791.43,350.942C1788.42,350.942 1788.42,349.139 1791.73,342.525C1793.23,339.819 1795.33,335.009 1796.24,332.003C1797.14,328.696 1801.05,326.892 1806.16,326.892C1810.67,326.892 1816.68,325.389 1819.08,323.886C1826.6,319.076 1828.7,320.579 1823.89,327.494ZM1835.92,355.752C1825.7,363.268 1820.29,360.863 1828.1,352.445C1833.21,347.034 1836.22,345.832 1838.32,348.237C1840.73,350.341 1839.83,352.746 1835.92,355.752ZM2114.9,146.818C2107.08,154.935 2104.68,155.836 2092.65,154.634C2085.14,154.033 2072.51,150.425 2064.7,146.517C2056.88,142.91 2049.36,140.805 2048.16,142.008C2046.96,143.21 2046.06,158.542 2046.06,175.978C2046.06,198.525 2044.85,207.845 2042.45,208.747C2040.34,209.648 2038.54,207.845 2038.54,205.139C2038.54,202.433 2034.63,198.525 2029.52,196.722C2024.11,194.617 2019.6,190.408 2018.4,186.2C2016.29,177.181 2019.6,157.34 2023.51,156.137C2025.01,155.536 2026.52,153.431 2026.52,151.327C2026.52,147.118 1992.54,139.001 1987.73,142.008C1985.63,143.21 1984.43,157.039 1984.43,178.684L1984.43,213.256L1976.61,211.753C1971.8,210.851 1968.19,211.753 1967.29,214.458C1965.19,220.17 1971.8,227.686 1978.72,227.686C1984.13,227.686 1984.43,230.392 1984.43,262.258L1984.43,297.13L1975.11,298.934C1965.79,300.738 1965.79,301.038 1967.29,314.567C1971.2,344.028 1979.32,360.262 1983.53,345.531C1984.13,342.825 1992.85,334.408 2002.47,326.892C2012.39,319.377 2020.2,312.462 2020.5,310.959C2020.8,305.848 2029.52,309.456 2029.52,314.867C2029.52,323.285 2032.53,322.383 2048.76,310.358C2056.28,304.345 2062.59,301.038 2062.59,302.542C2062.59,307.051 2047.56,330.199 2037.94,340.42C2033.13,345.531 2030.72,350.341 2032.23,351.844C2036.13,355.752 2058.68,340.42 2075.52,322.984C2083.33,314.567 2090.55,308.855 2091.75,309.757C2092.65,310.959 2091.45,314.266 2089.05,316.972C2086.34,319.978 2083.33,325.389 2082.43,328.997C2081.23,332.905 2078.82,335.911 2077.32,335.911C2075.82,335.911 2074.62,337.715 2074.62,339.819C2074.62,341.623 2066.5,351.243 2056.58,360.863C2046.66,370.182 2038.54,379.502 2038.54,381.305C2038.54,387.318 2054.47,381.005 2076.12,366.575C2101.67,349.439 2101.67,349.439 2101.67,354.85C2101.67,357.255 2103.47,360.863 2105.88,362.667C2108.28,364.771 2110.99,370.784 2111.89,376.195C2113.1,381.907 2115.8,387.919 2117.91,389.723C2123.62,394.533 2139.25,390.625 2147.37,381.907C2153.68,375.293 2154.58,370.784 2155.78,338.917C2156.69,316.07 2158.79,301.64 2161.2,299.235C2167.51,292.922 2165.4,285.707 2153.08,273.08C2141.95,261.657 2140.75,261.055 2137.14,266.166C2129.33,276.988 2118.51,281.798 2102.87,281.798C2079.43,281.798 2076.72,280.295 2082.43,269.473C2086.64,261.055 2087.24,260.755 2113.1,260.153C2127.53,259.853 2144.36,260.153 2150.67,260.454C2166.31,261.356 2168.41,254.141 2156.09,241.515C2147.07,232.195 2146.76,231.293 2146.76,203.035C2146.76,186.801 2147.97,172.972 2149.77,172.07C2155.18,168.763 2152.78,157.34 2145.86,152.229C2123.92,136.596 2124.52,136.596 2114.9,146.818ZM2110.69,173.573C2110.69,182.291 2110.39,182.592 2095.66,182.592C2080.03,182.592 2074.92,178.684 2078.82,169.064C2080.03,165.757 2084.84,164.555 2095.66,164.555C2110.39,164.555 2110.69,164.855 2110.69,173.573ZM2109.19,206.642L2109.19,217.164L2094.16,217.164C2080.63,217.164 2079.12,216.563 2078.22,210.25C2076.72,199.427 2083.03,194.316 2096.86,195.218C2108.89,196.12 2109.19,196.421 2109.19,206.642ZM2037.64,226.483C2041.25,227.385 2045.46,232.195 2047.26,237.005C2050.57,246.325 2050.26,246.325 2038.54,246.926C2028.32,247.227 2028.02,258.951 2037.94,260.153C2046.06,261.356 2049.06,267.068 2046.36,276.988C2045.15,282.4 2041.85,284.504 2033.43,285.707C2026.22,286.909 2021.4,286.308 2019.9,283.903C2018.7,281.798 2017.5,269.473 2017.5,255.945C2017.5,226.483 2020.5,221.974 2037.64,226.483ZM2110.69,232.195C2112.8,234.6 2117,236.705 2120.01,236.705C2126.32,236.705 2130.53,242.116 2126.92,245.723C2125.42,246.926 2108.28,248.73 2089.05,249.331C2054.47,250.533 2053.87,250.533 2062.29,245.423C2067.1,242.417 2071.91,238.508 2073.11,236.705C2078.52,227.987 2104.38,224.68 2110.69,232.195ZM2125.72,328.095C2123.32,344.028 2117.91,351.544 2109.79,350.341C2100.77,349.139 2100.47,344.028 2109.19,334.107C2113.7,329.297 2118.51,322.383 2120.01,318.475C2124.22,307.352 2128.13,313.364 2125.72,328.095ZM2209.6,142.008C2206.29,145.615 2202.98,145.916 2194.87,143.511C2172.02,136.897 2173.82,129.381 2173.82,237.306C2173.82,290.817 2172.32,342.525 2170.51,352.445C2169.01,362.366 2166.61,374.992 2165.7,380.404C2163.6,392.128 2169.91,393.631 2176.83,383.109C2192.16,359.66 2198.17,341.022 2200.58,308.855C2203.58,266.166 2208.39,278.792 2209.3,332.604C2209.6,362.967 2211.4,383.71 2213.2,386.115C2215.31,388.52 2223.12,390.024 2232.14,390.024C2244.77,390.024 2249.28,388.52 2254.09,383.41C2264.01,372.587 2279.34,336.512 2282.05,318.174C2287.46,281.798 2288.96,275.485 2292.27,276.688C2299.78,279.093 2302.49,325.389 2295.58,334.709C2293.17,337.715 2291.07,342.224 2291.07,344.329C2291.07,346.734 2285.05,356.354 2277.54,365.974C2263.11,384.612 2261.3,390.024 2268.82,390.024C2274.23,390.024 2309.1,363.869 2309.1,359.66C2309.1,354.55 2317.82,356.955 2319.32,362.366C2322.33,371.385 2342.17,390.324 2347.58,389.422C2351.19,388.821 2353.3,384.312 2354.2,374.992C2355.1,367.477 2358.41,357.857 2361.11,353.648C2365.92,346.132 2366.22,345.23 2361.71,340.721C2359.01,338.015 2355.1,335.911 2352.99,335.911C2347.58,335.911 2336.16,322.984 2336.16,316.671C2336.16,313.665 2337.96,304.947 2340.37,297.13C2342.77,289.615 2346.38,274.583 2348.18,263.761C2349.99,252.938 2354.2,239.711 2357.5,233.999L2363.52,224.078L2355.4,213.557C2351.19,207.845 2344.28,201.832 2340.67,200.028C2334.36,197.323 2332.25,198.225 2323.83,206.342C2316.02,214.158 2312.41,215.661 2303.39,215.06L2292.57,214.158L2292.57,175.076L2328.04,174.175C2368.93,173.273 2371.33,170.868 2351.49,151.327C2338.56,138.701 2336.16,139.001 2322.63,154.634C2312.41,167.26 2301.89,167.561 2280.54,155.536C2254.69,141.106 2254.39,141.707 2256.79,175.076C2258.6,199.728 2258.3,203.636 2254.09,203.636C2251.68,203.636 2247.47,204.538 2244.77,205.44C2240.56,206.943 2239.96,203.636 2239.96,181.69C2239.96,167.561 2241.46,154.935 2242.97,154.033C2251.68,148.621 2239.96,137.498 2225.23,137.498C2219.22,137.498 2212.3,139.603 2209.6,142.008ZM2318.12,249.331C2318.12,279.093 2314.51,283.602 2306.4,265.264C2300.08,251.435 2297.98,233.698 2302.19,229.79C2303.09,228.588 2307.3,227.686 2311.21,227.686C2317.82,227.686 2318.12,228.588 2318.12,249.331ZM2256.19,238.508C2259.5,246.926 2254.69,333.506 2249.88,350.04C2242.66,376.495 2239.96,371.986 2239.96,333.506C2239.96,307.953 2241.16,294.425 2244.47,286.608C2249.28,274.884 2248.98,272.479 2239.06,261.356C2232.14,253.84 2220.42,252.638 2217.71,259.252C2216.81,261.657 2213.2,263.761 2209.9,263.761C2205.09,263.761 2203.88,261.957 2203.88,253.54C2203.88,237.607 2209.9,233.698 2233.95,233.698C2249.88,233.698 2254.69,234.6 2256.19,238.508ZM2472.04,264.362L2472.94,391.527L2500,391.527L2500,139.001L2485.57,138.1L2471.44,137.198L2472.04,264.362ZM2429.35,264.963C2429.35,380.103 2430.26,397.539 2436.87,387.318C2437.77,385.514 2438.37,329.899 2438.67,263.16C2438.67,156.738 2438.07,142.008 2433.86,141.106C2429.95,140.204 2429.35,154.333 2429.35,264.963ZM1087.96,148.321C1087.06,149.223 1087.96,153.732 1090.37,158.241C1093.37,164.555 1093.98,170.868 1091.87,185.899C1086.16,224.68 1081.35,241.214 1064.21,277.289C1059.4,287.21 1055.5,296.529 1055.5,297.732C1055.5,309.757 1094.28,271.577 1106,247.527C1114.72,230.392 1116.22,229.49 1137.27,228.888C1152,228.287 1155,228.888 1158.91,234.901C1162.82,241.214 1162.82,243.92 1157.71,262.859C1154.7,274.583 1150.79,286.608 1149.29,289.615C1147.79,292.922 1143.28,301.339 1139.67,308.855C1135.76,316.37 1128.25,328.395 1122.84,335.911C1112.61,350.341 1081.05,381.005 1076.84,381.005C1075.34,381.005 1073.53,383.109 1072.33,385.514C1069.62,393.03 1084.06,390.925 1103.6,381.305C1151.7,357.255 1171.84,334.408 1194.38,278.792L1206.11,250.233L1195.59,240.913C1189.57,235.803 1184.76,230.692 1184.76,229.49C1184.76,228.588 1198.29,227.686 1214.83,227.686C1239.78,227.686 1245.19,226.784 1247.6,222.575C1249.4,218.968 1249.1,214.759 1246.09,209.348C1240.98,199.127 1228.96,197.323 1206.11,202.734C1196.79,204.838 1175.44,207.544 1158.61,208.446L1127.65,210.55L1127.65,203.035C1127.65,198.826 1130.05,189.506 1133.36,182.592C1140.27,166.96 1138.77,160.346 1126.14,152.53C1117.12,146.818 1092.17,144.112 1087.96,148.321ZM1348.61,149.223C1347.7,151.026 1349.81,156.738 1353.11,162.15C1358.53,170.868 1359.13,177.181 1359.13,220.17C1359.13,298.633 1349.81,327.794 1311.93,365.673C1299.9,377.698 1289.98,388.22 1289.98,388.821C1289.98,389.422 1292.69,390.024 1296,390.024C1308.02,390.024 1342.59,370.483 1359.43,353.648C1377.77,335.911 1385.28,322.082 1389.79,298.333C1392.8,280.897 1398.21,167.861 1396.1,162.45C1392.2,152.53 1353.41,141.707 1348.61,149.223ZM714.887,153.732C713.985,156.137 717.593,162.45 722.703,168.162C728.114,173.573 734.728,181.39 737.434,185.598C742.544,193.114 742.845,193.114 747.354,187.101C756.073,175.978 748.858,161.248 731.421,153.732C718.494,148.621 716.691,148.321 714.887,153.732ZM1202.8,151.928C1202.8,153.131 1206.41,158.542 1211.22,163.653C1215.73,168.763 1221.74,176.88 1225.05,181.089L1230.46,189.206L1236.77,183.193C1242.18,177.782 1242.48,175.978 1238.88,167.561C1236.77,162.45 1231.36,156.438 1226.55,154.033C1217.53,149.223 1202.8,148.02 1202.8,151.928ZM39.983,154.935C36.075,156.137 32.768,157.941 32.468,159.143C32.167,160.646 38.781,166.358 46.898,172.07C55.315,178.083 67.641,188.905 74.555,196.421C81.469,203.636 89.286,209.648 91.691,209.648C97.703,209.648 108.526,195.218 108.526,186.801C108.526,176.88 91.991,159.143 79.064,155.536C66.739,152.229 50.806,151.928 39.983,154.935ZM171.958,159.143C171.958,161.248 179.173,168.463 187.59,175.076C196.008,181.991 209.235,196.421 216.45,207.544C230.58,228.888 238.396,232.797 247.715,222.275C252.525,216.863 253.728,210.851 253.127,197.323C252.525,185.598 233.586,168.162 213.745,161.248C194.805,154.634 171.657,153.431 171.958,159.143ZM894.661,158.542C893.759,160.045 896.765,163.352 901.575,165.757C911.797,170.868 947.27,208.747 947.27,214.158C947.27,219.569 957.492,227.686 964.406,227.686C967.713,227.686 972.823,224.379 975.529,220.17C989.057,199.427 972.823,173.573 938.252,160.646C923.22,155.235 897.667,153.732 894.661,158.542ZM1262.93,158.542C1262.93,160.346 1265.03,166.058 1267.74,170.868C1271.34,178.383 1272.25,190.408 1271.64,237.005C1271.04,291.118 1271.34,294.425 1277.06,300.437C1281.27,304.646 1285.17,305.848 1289.68,304.345C1302.91,300.137 1304.41,292.922 1305.62,228.287L1306.52,166.96L1299.3,161.248C1291.79,154.935 1262.93,152.83 1262.93,158.542ZM1580.39,158.241C1579.49,159.745 1584,164.254 1590.31,168.162C1602.33,175.377 1632.7,208.446 1632.7,214.458C1632.7,219.569 1643.22,227.686 1649.83,227.686C1653.14,227.686 1658.25,224.379 1660.95,220.17C1674.48,199.728 1658.55,174.175 1624.28,160.646C1610.75,155.235 1583.09,153.732 1580.39,158.241Z" style="fill:white;fill-rule:nonzero;"/>
    <path d="M517.376,179.285C484.608,189.807 426.888,195.519 422.98,188.905C421.777,187.101 418.771,185.598 416.366,185.598C409.752,185.598 413.66,197.323 422.98,205.74C428.391,210.55 434.404,212.655 443.422,212.655C465.368,212.655 467.172,216.863 468.675,273.08C469.577,301.64 468.975,322.383 467.172,324.187C462.662,328.696 399.531,329.297 398.028,324.487C397.126,322.684 394.721,320.88 392.316,320.88C384.199,320.88 387.205,339.519 397.427,351.844C406.445,362.967 414.262,365.673 419.974,359.961C421.477,358.458 432.9,354.249 445.226,350.942C475.289,343.126 536.316,342.525 564.274,350.04C582.912,355.151 583.514,355.151 588.023,349.439C594.336,341.022 593.735,337.114 584.416,326.892L575.998,317.873L542.929,320.278C524.892,321.782 508.959,322.383 507.756,321.782C503.547,319.677 505.351,265.565 509.861,247.828C514.971,228.287 514.069,223.778 503.547,219.268C496.032,215.661 493.627,209.648 500.241,209.648C514.971,209.047 545.334,203.636 548.942,200.63C554.954,195.519 554.654,187.703 548.04,181.69C542.027,176.279 530.002,175.377 517.376,179.285ZM867.905,202.433C861.592,204.838 837.542,207.544 814.695,208.446C778.319,210.25 772.306,209.949 767.496,205.74C760.582,199.427 757.876,201.832 757.876,215.06C757.876,237.005 777.417,253.84 787.939,241.214C790.043,238.809 794.252,236.705 797.559,236.705C800.866,236.705 805.676,235.502 808.682,233.698C811.688,232.195 822.21,229.49 831.83,227.686C841.45,226.183 853.175,223.778 857.985,222.876C865.801,221.072 866.101,221.373 866.101,232.195C866.101,242.417 858.285,260.755 854.076,260.755C852.874,260.755 846.561,258.049 839.646,254.742C818.001,244.22 806.578,249.331 814.995,265.565C818.001,271.277 818.302,275.185 815.596,284.504C813.492,290.817 811.989,298.934 811.989,302.542C811.989,313.364 792.749,350.04 775.313,372.587C762.686,388.821 767.496,391.527 785.835,378.9C818.001,356.053 832.131,335.911 851.07,286.007C853.776,278.191 859.788,273.682 883.237,261.957C898.87,253.84 912.398,245.723 913.3,243.619C916.306,235.803 894.962,203.636 884.139,200.028C881.734,199.127 874.519,200.329 867.905,202.433ZM330.988,229.49C297.92,268.872 248.918,303.443 203.223,319.377C186.087,325.389 182.78,325.69 175.866,322.082C165.945,316.972 162.638,318.775 162.638,329.598C162.638,340.12 175.565,369.882 183.682,377.999C192.1,386.416 196.609,385.514 209.536,373.489C215.548,367.777 221.561,362.967 222.763,362.967C223.966,362.967 233.285,357.556 243.206,350.942C263.648,337.414 288.6,313.965 304.233,293.823C319.264,274.884 343.013,234.6 343.013,228.287C343.013,225.281 344.517,221.373 346.32,219.569C348.124,217.765 349.327,214.759 348.725,212.955C348.124,211.452 340.007,218.667 330.988,229.49ZM7.215,214.759C0,217.465 3.307,224.078 16.234,231.594C23.148,235.803 35.173,246.024 43.29,254.442C58.321,270.675 67.34,273.682 72.451,264.062C81.469,247.227 72.15,225.281 52.309,217.164C42.088,212.955 15.031,211.452 7.215,214.759ZM1044.07,242.116C1030.54,256.546 1014.91,271.277 1009.5,275.185C990.861,288.713 960.197,307.953 954.485,309.757C951.479,310.658 939.454,314.867 928.03,319.076C908.79,326.291 906.686,326.592 901.876,322.082C892.857,313.965 889.55,319.677 891.955,338.316C894.06,355.452 898.268,364.771 909.392,377.097C916.005,384.913 925.625,386.115 928.03,379.502C928.932,377.097 938.252,370.182 948.473,363.869C1000.48,332.905 1035.95,295.327 1060.01,246.625C1064.51,237.907 1069.02,230.091 1070.83,229.189C1074.13,227.085 1074.43,215.661 1071.43,215.962C1069.92,215.962 1057.9,227.987 1044.07,242.116ZM1728.9,243.018C1714.77,258.049 1694.02,276.387 1682.3,284.504C1662.46,298.032 1623.98,317.873 1617.66,317.873C1616.16,317.873 1610.15,320.278 1604.44,322.984C1594.22,327.794 1593.31,327.494 1587.9,322.684C1578.28,313.965 1574.98,319.377 1577.38,338.316C1579.49,355.452 1583.69,364.771 1594.82,377.097C1601.43,384.913 1611.05,386.115 1613.46,379.502C1614.66,376.796 1623.68,369.882 1633.9,364.17C1677.19,338.617 1717.77,298.934 1737.91,261.957C1741.52,255.644 1747.54,244.22 1751.74,237.005C1758.96,223.778 1761.06,215.36 1756.85,215.962C1755.35,215.962 1743.03,228.287 1728.9,243.018ZM2394.48,221.072C2384.86,227.686 2388.47,245.723 2399.29,245.723C2402.3,245.723 2407.11,242.717 2409.51,239.11C2413.42,233.398 2413.72,231.594 2410.11,226.183C2405.6,219.569 2399.59,217.465 2394.48,221.072ZM164.141,249.932C135.582,279.093 104.016,302.241 67.941,320.579C36.676,336.512 24.651,338.917 18.338,331.402C16.234,328.997 12.626,326.892 10.221,326.892C6.614,326.892 6.313,329.598 7.816,339.519C10.522,356.053 20.443,374.09 30.964,381.907L39.382,388.22L45.996,381.907C49.904,378.6 60.125,371.685 68.843,367.176C77.561,362.366 87.783,356.955 91.39,354.85C104.016,347.635 144,308.855 156.325,291.719C166.546,276.988 189.695,233.698 189.695,229.189C189.695,224.98 183.081,230.091 164.141,249.932Z" style="fill:white;fill-rule:nonzero;"/>
    <path d="M368.266,236.705C359.247,240.312 351.13,259.252 353.235,271.577C355.64,282.7 367.364,293.823 377.585,293.823C381.494,293.823 387.506,291.118 391.414,288.112C397.427,283.302 398.629,279.694 398.629,265.264C398.629,250.233 397.727,247.227 390.212,240.913C381.193,233.097 378.187,232.496 368.266,236.705ZM2390.27,290.817C2386.06,298.633 2388.77,307.652 2395.68,309.456C2407.71,312.763 2417.03,301.339 2410.71,290.817C2405.9,283.001 2394.48,283.001 2390.27,290.817Z" style="fill:white;fill-rule:nonzero;"/>
</svg>
